<svg xmlns="http://www.w3.org/2000/svg" xmlns:xlink="http://www.w3.org/1999/xlink" xml:space="preserve" width="560.861" height="61" version="1.1" viewBox="0 0 148.394 16.14">
  <defs>
    <linearGradient id="c">
      <stop offset="0" style="stop-color:#f7f7fc;stop-opacity:1"/>
      <stop offset="1" style="stop-color:#b6b6e2;stop-opacity:1"/>
    </linearGradient>
    <linearGradient id="b">
      <stop offset="0" style="stop-color:#f7f7fc;stop-opacity:1"/>
      <stop offset="1" style="stop-color:#b6b6e2;stop-opacity:1"/>
    </linearGradient>
    <linearGradient id="a">
      <stop offset="0" style="stop-color:#f7f7fc;stop-opacity:1"/>
      <stop offset="1" style="stop-color:#b6b6e2;stop-opacity:1"/>
    </linearGradient>
    <linearGradient xlink:href="#a" id="d" x1="-19.17" x2="-18.868" y1="23.735" y2="-77.953" gradientTransform="matrix(.47643 0 0 -.47643 75.3 33.923)" gradientUnits="userSpaceOnUse"/>
    <linearGradient xlink:href="#b" id="m" x1="40.898" x2="40.714" y1="3.276" y2="15.948" gradientUnits="userSpaceOnUse"/>
    <linearGradient xlink:href="#c" id="f" x1="108.657" x2="108.552" y1="-.046" y2="16.259" gradientUnits="userSpaceOnUse"/>
    <linearGradient xlink:href="#c" id="g" x1="108.657" x2="108.552" y1="-.046" y2="16.259" gradientUnits="userSpaceOnUse"/>
    <linearGradient xlink:href="#c" id="h" x1="108.657" x2="108.552" y1="-.046" y2="16.259" gradientUnits="userSpaceOnUse"/>
    <linearGradient xlink:href="#c" id="i" x1="108.657" x2="108.552" y1="-.046" y2="16.259" gradientUnits="userSpaceOnUse"/>
    <linearGradient xlink:href="#c" id="j" x1="108.657" x2="108.552" y1="-.046" y2="16.259" gradientUnits="userSpaceOnUse"/>
    <linearGradient xlink:href="#c" id="k" x1="108.657" x2="108.552" y1="-.046" y2="16.259" gradientUnits="userSpaceOnUse"/>
    <linearGradient xlink:href="#c" id="l" x1="108.657" x2="108.552" y1="-.046" y2="16.259" gradientUnits="userSpaceOnUse"/>
    <linearGradient xlink:href="#b" id="n" x1="40.898" x2="40.714" y1="3.276" y2="15.948" gradientUnits="userSpaceOnUse"/>
    <linearGradient xlink:href="#b" id="o" x1="40.898" x2="40.714" y1="3.276" y2="15.948" gradientUnits="userSpaceOnUse"/>
    <linearGradient xlink:href="#b" id="p" x1="40.898" x2="40.714" y1="3.276" y2="15.948" gradientUnits="userSpaceOnUse"/>
    <linearGradient xlink:href="#b" id="q" x1="40.898" x2="40.714" y1="3.276" y2="15.948" gradientUnits="userSpaceOnUse"/>
    <linearGradient xlink:href="#b" id="r" x1="40.898" x2="40.714" y1="3.276" y2="15.948" gradientUnits="userSpaceOnUse"/>
    <linearGradient xlink:href="#b" id="s" x1="40.898" x2="40.714" y1="3.276" y2="15.948" gradientUnits="userSpaceOnUse"/>
    <linearGradient xlink:href="#b" id="t" x1="40.898" x2="40.714" y1="3.276" y2="15.948" gradientUnits="userSpaceOnUse"/>
    <clipPath id="e" clipPathUnits="userSpaceOnUse">
      <path d="M744.32 3.423h666.666V670.09H744.32Z" style="stroke-width:1.33333" transform="matrix(.35732 0 0 .35732 -395.82 -85.806)"/>
    </clipPath>
  </defs>
  <path d="m75.3 33.923-.513.33a7.53 7.53 0 0 1-4.081 1.202h-2.189v-2.19c0-1.448.418-2.865 1.202-4.081l.33-.513-3.903-6.054-3.903 6.054.33.513a7.527 7.527 0 0 1 1.201 4.08v2.191h-2.188a7.531 7.531 0 0 1-4.08-1.202l-.514-.33-6.054 3.903 6.054 3.904.513-.331a7.538 7.538 0 0 1 4.08-1.201h2.19v20.24a7.527 7.527 0 0 1-1.202 4.08l-.33.513 3.903 6.055 3.903-6.055-.33-.512a7.531 7.531 0 0 1-1.202-4.081v-20.24h2.189c1.447 0 2.864.417 4.08 1.2l.513.332 6.055-3.904z" clip-path="url(#e)" style="fill:url(#d);fill-opacity:1;fill-rule:nonzero;stroke:none;stroke-width:.47643" transform="matrix(.33299 0 0 .33299 42.011 -7.531)"/>
  <g aria-label="BÃBLIA" style="font-weight:500;font-size:17.6389px;font-family:Cinzel;-inkscape-font-specification:&quot;Cinzel Medium&quot;;text-align:center;text-anchor:middle;fill:url(#f);stroke-width:.301253" transform="translate(-93.735)">
    <path d="M95.516 3.792h2.258q1.252 0 2.152.353.917.353 1.393 1.023.494.653.494 1.588 0 .776-.3 1.34-.282.547-.74.882-.46.318-.97.441.917.124 1.605.582.705.459 1.075 1.164.37.706.37 1.623 0 1.023-.528 1.782-.512.758-1.5 1.164-.987.406-2.363.406h-1.888v-.177q.018-.176.018-.335v-.176h1.57q.882 0 1.5-.318.634-.317.97-.952.335-.635.335-1.553 0-.917-.336-1.499-.335-.6-.864-.917-.53-.335-1.182-.459-.635-.14-1.252-.14v-.16q.406 0 .864-.105.459-.106.865-.37.423-.265.67-.76.264-.51.264-1.305 0-.829-.282-1.375-.282-.565-.846-.83-.547-.282-1.341-.282h-1.834q0-.017-.053-.158-.036-.16-.089-.318l-.035-.159zm1.217 0V16.14h-1.64V3.792Zm-1.587 11.06v1.288h-1.411l.017-.177h.212q.459 0 .794-.317.335-.335.335-.794zm0-9.772h-.053q0-.459-.335-.776-.335-.335-.794-.335h-.212l-.017-.177h1.41z" style="fill:url(#g)"/>
    <path d="M107.44 3.792V16.14h-1.64V3.792Zm-1.587 11.06v1.288h-1.412v-.177H104.671q.458 0 .776-.317.335-.335.353-.794zm0-9.772h-.053q-.018-.459-.353-.776-.318-.335-.776-.335H104.44v-.177h1.412zm1.534 9.772h.053q.018.459.335.794.335.317.794.317H108.798v.177h-1.41zm0-9.772V3.792h1.411v.177H108.57q-.459 0-.794.335-.317.317-.335.776zm-.935-2.522q.335-.441.723-.882.406-.459.812-.865.423-.423.794-.776.282.23.511.512.23.264.37.6-.493.282-1.023.564-.511.282-1.04.53-.512.228-1.023.44z" style="fill:url(#h)"/>
    <path d="M112.467 3.792h2.258q1.252 0 2.152.353.917.353 1.393 1.023.494.653.494 1.588 0 .776-.3 1.34-.282.547-.74.882-.46.318-.97.441.917.124 1.605.582.705.459 1.075 1.164.37.706.37 1.623 0 1.023-.528 1.782-.512.758-1.5 1.164-.987.406-2.363.406h-1.888v-.177q.018-.176.018-.335v-.176h1.57q.882 0 1.5-.318.634-.317.97-.952.335-.635.335-1.553 0-.917-.336-1.499-.335-.6-.864-.917-.53-.335-1.182-.459-.635-.14-1.252-.14v-.16q.406 0 .864-.105.459-.106.865-.37.423-.265.67-.76.264-.51.264-1.305 0-.829-.282-1.375-.282-.565-.847-.83-.546-.282-1.34-.282h-1.835q0-.017-.052-.158-.036-.16-.089-.318l-.035-.159zm1.217 0V16.14h-1.64V3.792Zm-1.587 11.06v1.288h-1.411l.017-.177h.212q.458 0 .794-.317.335-.335.335-.794zm0-9.772h-.053q0-.459-.335-.776-.335-.335-.794-.335h-.212l-.017-.177h1.41z" style="fill:url(#i)"/>
    <path d="M124.391 3.792V16.14h-1.64V3.792Zm4.727 11.73.141.618h-4.92v-.618zm1.147-2.487-.953 3.105h-3.104l.635-.618q.917 0 1.534-.3.618-.317 1.023-.882.406-.564.688-1.305zm-7.461 1.817v1.288h-1.412v-.177H121.622q.458 0 .776-.317.335-.335.353-.794zm0-9.772h-.053q-.018-.459-.353-.776-.318-.335-.776-.335H121.392v-.177h1.412zm1.534 0V3.792h1.411v.177H125.52q-.459 0-.794.335-.317.317-.335.776z" style="fill:url(#j)"/>
    <path d="M134.41 3.792V16.14h-1.64V3.792Zm-1.588 11.06v1.288h-1.41v-.177H131.64q.458 0 .776-.317.335-.335.353-.794zm0-9.772h-.052q-.018-.459-.353-.776-.318-.335-.776-.335H131.41v-.177h1.411zm1.535 9.772h.053q.018.459.335.794.335.317.794.317H135.768v.177h-1.411zm0-9.772V3.792h1.411v.177H135.54q-.459 0-.794.335-.317.317-.335.776z" style="fill:url(#k)"/>
    <path d="m142.965 3.51 5.415 12.524h-2.064l-3.933-10.266Zm-3.793 11.342q-.123.353-.035.6t.282.388q.212.123.424.123H140v.177h-3.616v-.177h.159q.406 0 .83-.247.44-.264.722-.864zm3.793-11.342.14 1.535-4.409 11.042h-1.146l4.533-10.601.123-.265q.124-.247.247-.582.141-.335.247-.653.106-.317.106-.476zm2.275 8.026v.6h-5.397v-.6Zm.618 3.316h1.993q.282.6.705.864.441.247.847.247H149.544v.177h-4.515v-.177h.158q.353 0 .618-.282.264-.3.053-.83z" style="fill:url(#l)"/>
  </g>
  <g aria-label="SCROLLS" style="font-weight:500;font-size:17.6389px;font-family:Cinzel;-inkscape-font-specification:&quot;Cinzel Medium&quot;;text-align:center;text-anchor:middle;fill:url(#m);stroke-width:.459918" transform="translate(71.114)">
    <path d="M4.766 3.298q.3 0 .688.036.388.035.776.106.405.052.705.123.318.053.459.124l-.07 2.099h-.16q0-.865-.617-1.376-.617-.512-1.552-.512-.988 0-1.605.582-.6.565-.6 1.34-.018.389.194.83.23.423.688.794l3.44 2.875q.617.476.864 1.111.265.617.247 1.288-.035 1.552-1.04 2.487-1.006.935-2.717.935-.547 0-1.182-.106-.617-.106-1.164-.318-.547-.23-.882-.582-.088-.317-.088-.776.017-.476.106-.97.105-.494.264-.882h.159q-.088.9.247 1.605.353.706 1.005 1.094.67.37 1.535.335 1.04-.035 1.71-.635.689-.618.689-1.605 0-.512-.23-.935-.229-.423-.705-.759L2.649 8.82q-.67-.493-.953-1.164-.282-.67-.246-1.34.035-.794.423-1.482.388-.706 1.111-1.111.741-.424 1.782-.424Zm2.628.177v.37H5.806v-.37Z" style="fill:url(#n)"/>
    <path d="m21.752 10.742-.088 2.858q-.441.723-1.13 1.305-.67.564-1.622.9-.952.335-2.205.335-1.94-.018-3.44-.794-1.481-.794-2.31-2.223-.83-1.446-.83-3.422 0-1.94.812-3.369.83-1.446 2.311-2.24 1.5-.794 3.545-.794 1.341 0 2.417.336 1.076.317 1.834.793l.247 2.664h-.158q-.424-1.623-1.588-2.4-1.146-.793-2.681-.793-1.517 0-2.61.723-1.094.706-1.694 2.011-.6 1.288-.6 3.052 0 1.746.582 3.051.6 1.306 1.658 2.046 1.076.724 2.505.759 1.288 0 2.31-.459 1.024-.458 1.694-1.5.67-1.057.9-2.839z" style="fill:url(#o)"/>
    <path d="M26.409 3.545h2.416q.794 0 1.482.212t1.164.635q.494.406.776 1.023.282.617.282 1.447 0 .81-.37 1.587-.37.758-1.04 1.252-.653.494-1.553.53.388.14.776.546t.67.794q0 .018.212.335.23.318.564.794l.67.917q.354.459.618.759.353.423.688.723.353.282.74.458.407.16.9.16v.176H34.17q-.847 0-1.5-.212-.652-.23-1.128-.6-.477-.388-.812-.829-.07-.123-.3-.458-.211-.336-.494-.759-.264-.44-.529-.864-.264-.424-.458-.723l-.247-.406q-.3-.476-.67-.811-.371-.353-.812-.37v-.177q.018 0 .247.017.247 0 .564-.017.459-.018.97-.159.53-.141.953-.547.441-.406.653-1.2.053-.176.07-.44.036-.265.018-.547-.018-1.217-.617-1.887-.583-.688-1.535-.724-.406-.035-.847-.017h-1.111q0-.018-.053-.159-.035-.159-.088-.3l-.035-.159zm.229 0v12.348h-1.64V3.545Zm-1.588 11.06v1.288h-1.41v-.177H23.868q.458 0 .776-.317.335-.335.353-.794zm0-9.772h-.053q-.017-.459-.352-.776-.318-.335-.776-.335H23.639v-.177h1.411zm1.535 9.772h.053q0 .459.335.794.335.317.794.317h.211v.177h-1.393z" style="fill:url(#p)"/>
    <path d="M41.948 3.298q1.976 0 3.44.794 1.482.794 2.293 2.24.83 1.447.83 3.387t-.83 3.387q-.811 1.446-2.293 2.24-1.464.794-3.44.794-1.94 0-3.421-.794-1.464-.794-2.294-2.24-.81-1.447-.81-3.387t.81-3.387q.83-1.446 2.294-2.24 1.481-.794 3.421-.794zm0 12.242q1.43 0 2.47-.723 1.04-.724 1.623-2.029.582-1.305.582-3.069t-.582-3.07q-.582-1.304-1.623-2.028-1.04-.723-2.47-.723-1.393 0-2.451.723-1.041.724-1.623 2.029-.582 1.305-.582 3.069t.582 3.07q.582 1.304 1.623 2.028 1.058.723 2.451.723z" style="fill:url(#q)"/>
    <path d="M52.937 3.545v12.348h-1.64V3.545Zm4.728 11.73.14.618h-4.92v-.618zm1.146-2.487-.952 3.105h-3.105l.635-.618q.918 0 1.535-.3.617-.317 1.023-.882.406-.564.688-1.305zm-7.461 1.817v1.288h-1.411v-.177H50.168q.459 0 .776-.317.335-.335.353-.794zm0-9.772h-.053q-.018-.459-.353-.776-.317-.335-.776-.335H49.94v-.177h1.411zm1.535 0V3.545h1.41v.177H54.067q-.458 0-.793.335-.318.317-.336.776z" style="fill:url(#r)"/>
    <path d="M62.956 3.545v12.348h-1.64V3.545Zm4.728 11.73.14.618h-4.92v-.618zm1.146-2.487-.952 3.105h-3.105l.635-.618q.917 0 1.535-.3.617-.317 1.023-.882.406-.564.688-1.305zm-7.461 1.817v1.288h-1.411v-.177H60.187q.459 0 .776-.317.335-.335.353-.794zm0-9.772h-.053q-.018-.459-.353-.776-.317-.335-.776-.335H59.958v-.177h1.41zm1.534 0V3.545h1.412v.177H64.085q-.458 0-.793.335-.318.317-.336.776z" style="fill:url(#s)"/>
    <path d="M73.822 3.298q.3 0 .688.036.388.035.776.106.406.052.706.123.317.053.458.124l-.07 2.099h-.16q0-.865-.617-1.376-.617-.512-1.552-.512-.988 0-1.605.582-.6.565-.6 1.34-.017.389.194.83.23.423.688.794l3.44 2.875q.617.476.864 1.111.265.617.247 1.288-.035 1.552-1.04 2.487-1.006.935-2.717.935-.547 0-1.182-.106-.617-.106-1.164-.318-.547-.23-.882-.582-.088-.317-.088-.776.018-.476.106-.97.106-.494.264-.882h.16q-.089.9.246 1.605.353.706 1.006 1.094.67.37 1.534.335 1.04-.035 1.711-.635.688-.618.688-1.605 0-.512-.23-.935-.229-.423-.705-.759l-3.28-2.787q-.671-.493-.953-1.164-.282-.67-.247-1.34.035-.794.423-1.482.388-.706 1.111-1.111.741-.424 1.782-.424Zm2.628.177v.37h-1.587v-.37Z" style="fill:url(#t)"/>
  </g>
</svg>